<svg version="1.0" xmlns="http://www.w3.org/2000/svg"
 width="512.000000pt" height="512.000000pt" viewBox="0 0 512.000000 512.000000"
 preserveAspectRatio="xMidYMid meet">

<g transform="translate(0.000000,512.000000) scale(0.100000,-0.100000)"
fill="#000000" stroke="none">
<path d="M2315 5109 c-800 -83 -1501 -518 -1927 -1196 -487 -774 -516 -1777
-75 -2578 200 -364 487 -676 841 -913 238 -159 600 -311 876 -366 214 -43 295
-51 530 -51 236 0 333 10 532 51 879 183 1616 843 1897 1699 93 282 126 493
126 805 0 301 -32 513 -116 775 -124 390 -330 728 -622 1024 -399 404 -893
653 -1462 737 -123 18 -478 26 -600 13z m435 -639 c387 -40 748 -193 1045
-442 670 -561 874 -1510 494 -2298 -390 -808 -1279 -1238 -2155 -1041 -220 49
-474 161 -659 289 -783 543 -1055 1560 -645 2410 193 400 494 702 893 897 322
157 679 221 1027 185z"/>
<path d="M2240 3360 l0 -480 -480 0 -480 0 0 -320 0 -320 480 0 480 0 0 -480
0 -480 320 0 320 0 0 480 0 480 480 0 480 0 0 320 0 320 -480 0 -480 0 0 480
0 480 -320 0 -320 0 0 -480z"/>
</g>
</svg>
