<svg version="1.0" xmlns="http://www.w3.org/2000/svg"
 width="24" height="24" viewBox="0 0 512.000000 512.000000"
 preserveAspectRatio="xMidYMid meet">

<g transform="translate(0.000000,512.000000) scale(0.100000,-0.100000)"
fill="#000000" stroke="none">
<path d="M2455 4949 c-545 -40 -1050 -392 -1321 -921 -30 -60 -60 -108 -67
-108 -7 0 -37 16 -67 35 -201 126 -229 140 -319 154 -150 24 -282 -44 -416
-214 -115 -147 -189 -325 -220 -530 -14 -92 -16 -183 -13 -545 2 -388 0 -447
-16 -546 -19 -110 -19 -112 0 -145 32 -56 72 -69 204 -69 412 1 715 148 855
414 22 42 42 76 45 76 3 0 18 -23 34 -51 91 -162 300 -391 480 -526 533 -398
1108 -442 1662 -127 253 145 543 427 670 653 16 28 31 51 34 51 3 0 23 -34 45
-76 140 -266 443 -413 855 -414 132 0 172 13 204 69 19 33 19 35 0 145 -16 99
-18 158 -16 546 3 362 1 453 -13 545 -31 205 -105 383 -220 530 -134 170 -266
238 -416 214 -90 -14 -118 -28 -319 -154 -30 -19 -60 -35 -67 -35 -7 0 -37 48
-67 108 -265 518 -779 883 -1294 918 -42 2 -90 6 -107 7 -16 2 -75 0 -130 -4z
m295 -1339 c339 -82 649 -122 1060 -135 107 -4 209 -11 227 -16 17 -6 50 -28
73 -50 69 -67 101 -164 101 -308 0 -169 -41 -263 -134 -307 -43 -20 -66 -24
-130 -23 l-79 2 -44 -82 c-279 -523 -873 -885 -1363 -831 -460 51 -926 382
-1165 831 l-44 82 -79 -2 c-183 -4 -264 97 -264 330 0 141 31 239 97 304 55
55 87 65 216 65 139 0 387 16 568 36 201 22 365 51 555 99 94 24 186 43 205
44 19 0 109 -17 200 -39z"/>
<path d="M1995 3249 c-141 -34 -222 -195 -165 -327 27 -62 91 -123 148 -140
178 -53 349 97 313 275 -27 136 -163 224 -296 192z m164 -157 c37 -20 71 -73
71 -110 0 -64 -60 -122 -128 -122 -38 0 -50 5 -83 39 -32 32 -39 46 -39 77 0
50 28 96 71 117 44 21 67 21 108 -1z"/>
<path d="M3013 3251 c-54 -14 -118 -58 -147 -101 -83 -126 -37 -293 99 -356
187 -88 390 88 335 288 -32 114 -173 197 -287 169z m54 -158 c44 -21 73 -67
73 -117 0 -31 -7 -45 -39 -77 -33 -34 -45 -39 -83 -39 -68 0 -128 58 -128 122
0 37 34 90 71 110 42 22 61 23 106 1z"/>
<path d="M1455 1485 c-298 -65 -573 -303 -642 -556 -15 -55 -18 -113 -18 -414
l0 -350 1765 0 1765 0 0 350 c0 301 -3 359 -18 414 -69 255 -346 493 -647 557
-44 9 -137 14 -288 14 -255 0 -259 -1 -307 -79 -175 -283 -285 -439 -381 -541
-109 -115 -139 -115 -249 2 -98 104 -199 246 -380 539 -48 78 -51 79 -312 78
-148 0 -249 -5 -288 -14z"/>
</g>
</svg>
