<svg version="1.0" xmlns="http://www.w3.org/2000/svg"
 width="24" height="24" viewBox="0 0 512.000000 512.000000"
 preserveAspectRatio="xMidYMid meet">

<g transform="translate(0.000000,512.000000) scale(0.100000,-0.100000)"
fill="#000000" stroke="none">
<path d="M2355 5096 c-392 -81 -686 -227 -915 -456 -125 -125 -193 -219 -289
-397 -124 -229 -183 -459 -183 -706 0 -70 3 -149 7 -176 6 -47 6 -48 -26 -62
-48 -19 -140 -116 -171 -179 -77 -159 -89 -411 -27 -577 53 -139 168 -232 314
-251 49 -7 50 -7 115 -101 73 -106 239 -284 345 -371 155 -127 363 -242 546
-303 386 -129 755 -102 1134 83 204 99 363 217 526 388 82 86 210 251 221 283
2 6 31 16 63 21 113 17 216 83 272 172 86 135 105 399 42 585 -32 94 -94 178
-166 226 l-60 40 5 165 c4 137 1 186 -17 290 -27 160 -64 239 -162 344 -121
129 -245 199 -609 344 -285 113 -346 141 -429 196 -135 90 -206 190 -229 325
-14 77 -33 108 -77 127 -46 19 -99 17 -230 -10z m-735 -1644 c47 -16 157 -59
245 -95 363 -148 544 -187 768 -166 174 17 284 49 602 179 233 95 311 120 382
120 93 0 129 -30 210 -176 63 -114 95 -150 162 -183 95 -49 130 -94 156 -203
26 -111 15 -260 -26 -340 -11 -21 -38 -50 -61 -65 -37 -25 -51 -28 -130 -28
l-89 -1 -44 -77 c-111 -195 -280 -374 -483 -515 -211 -145 -435 -230 -671
-252 -507 -48 -1078 277 -1364 775 l-40 70 -86 0 c-98 0 -134 14 -175 68 -68
89 -76 338 -15 459 26 51 54 76 119 105 30 14 63 32 73 41 10 9 43 65 74 124
57 112 108 169 170 188 44 15 130 3 223 -28z"/>
<path d="M1852 2942 c-247 -88 -181 -433 82 -432 134 1 235 96 236 223 0 156
-163 263 -318 209z m181 -136 c59 -24 87 -100 57 -155 -16 -31 -69 -61 -108
-61 -65 0 -122 58 -122 123 0 32 35 76 74 93 40 17 59 17 99 0z"/>
<path d="M3062 2941 c-104 -36 -158 -119 -150 -231 15 -207 310 -277 430 -102
37 54 48 135 28 197 -19 57 -88 121 -151 139 -67 20 -91 20 -157 -3z m83 -135
c76 -32 93 -121 34 -181 -26 -26 -37 -30 -84 -30 -48 0 -59 4 -85 30 -58 59
-42 148 33 180 41 18 60 18 102 1z"/>
<path d="M1470 1523 c-14 -2 -63 -16 -110 -30 -282 -84 -515 -292 -613 -546
l-32 -82 -3 -433 -3 -432 1851 0 1851 0 -3 433 -3 432 -32 82 c-97 253 -325
457 -613 547 -120 38 -264 46 -340 19 -30 -11 -219 -115 -420 -232 -201 -116
-382 -216 -402 -222 -26 -6 -50 -6 -76 0 -20 6 -201 106 -402 222 -201 117
-389 220 -417 230 -50 18 -164 24 -233 12z m75 -270 c-4 -21 -25 -130 -47
-242 -38 -190 -40 -205 -26 -235 9 -17 27 -38 42 -45 35 -19 98 -9 500 80
l319 72 44 -24 43 -24 0 -297 0 -298 -740 0 -740 0 0 254 c0 281 6 332 51 424
87 178 349 360 537 371 21 1 22 -2 17 -36z m2173 6 c231 -84 417 -273 452
-458 5 -29 10 -168 10 -307 l0 -254 -740 0 -740 0 0 298 0 297 43 24 44 24
319 -72 c402 -89 465 -99 500 -80 15 7 33 28 42 45 14 30 12 45 -26 235 -22
112 -43 221 -47 243 l-6 38 48 -6 c26 -4 72 -16 101 -27z"/>
<path d="M3179 562 c-29 -24 -32 -101 -4 -132 18 -19 30 -20 382 -20 350 0
364 1 383 20 14 14 20 33 20 65 0 32 -6 51 -20 65 -19 19 -33 20 -379 20 -334
0 -360 -1 -382 -18z"/>
</g>
</svg>
