<svg version="1.0" xmlns="http://www.w3.org/2000/svg"
 width="24" height="24" viewBox="0 0 980.000000 966.000000"
 preserveAspectRatio="xMidYMid meet">

<g transform="translate(0.000000,966.000000) scale(0.100000,-0.100000)"
fill="#000000" stroke="none">
<path d="M6226 9631 c-64 -26 -139 -100 -167 -165 -50 -112 -22 -263 65 -349
59 -59 108 -78 236 -93 63 -8 146 -23 185 -35 344 -104 585 -440 585 -815 1
-612 -610 -1027 -1147 -779 -89 41 -140 76 -228 155 -86 79 -140 103 -225 104
-88 0 -156 -30 -219 -99 -85 -94 -106 -236 -51 -351 48 -101 260 -274 445
-365 204 -99 379 -139 609 -139 382 0 701 134 977 409 278 278 421 611 436
1011 16 438 -137 824 -447 1131 -242 240 -558 380 -885 394 -105 5 -126 3
-169 -14z"/>
<path d="M4790 8944 c-433 -28 -761 -88 -1115 -204 -369 -121 -688 -277 -1015
-495 -271 -181 -472 -348 -700 -581 -720 -737 -1162 -1700 -1265 -2755 l-6
-65 -89 -63 c-109 -77 -276 -248 -348 -356 -106 -159 -181 -340 -224 -539 -29
-135 -31 -415 -5 -551 122 -621 587 -1079 1176 -1158 l93 -12 87 -139 c625
-997 1621 -1696 2746 -1930 641 -133 1334 -109 1960 69 1030 293 1907 964
2491 1906 41 65 42 66 94 73 74 10 229 61 327 107 275 131 521 379 658 664
184 383 191 845 20 1235 -78 177 -193 338 -339 477 l-96 90 0 59 c0 86 -35
377 -65 539 -87 475 -250 941 -473 1350 -80 148 -223 379 -278 448 -78 100
-208 141 -323 102 -69 -23 -152 -99 -181 -166 -53 -125 -36 -215 74 -383 111
-169 180 -291 266 -469 245 -507 371 -1037 389 -1626 l6 -224 108 -64 c276
-164 417 -390 433 -693 18 -323 -163 -633 -449 -769 -110 -52 -186 -69 -351
-77 -136 -7 -139 -8 -153 -33 -152 -282 -291 -499 -436 -681 -599 -753 -1434
-1235 -2367 -1365 -761 -106 -1567 52 -2245 440 -637 364 -1136 892 -1496
1583 -62 119 -65 123 -92 118 -16 -3 -90 -9 -165 -12 -104 -5 -154 -2 -209 9
-159 34 -274 98 -393 217 -152 153 -224 316 -237 535 -13 237 78 472 247 635
82 78 158 125 308 187 107 46 112 49 112 78 1 200 33 533 70 741 169 936 679
1786 1417 2360 535 417 1151 668 1828 745 129 15 528 18 736 5 144 -9 147 -8
201 16 163 75 228 267 147 435 -27 57 -108 128 -167 147 -26 8 -96 20 -157 25
-120 12 -467 21 -555 15z"/>
<path d="M3002 5256 c-168 -41 -317 -165 -395 -327 -53 -111 -67 -169 -67
-287 0 -354 292 -641 630 -619 151 10 287 74 391 185 115 123 171 260 172 427
1 121 -12 184 -65 295 -33 68 -57 101 -122 166 -87 87 -162 131 -271 159 -71
18 -199 18 -273 1z"/>
<path d="M6565 5251 c-95 -28 -179 -76 -252 -145 -128 -120 -194 -274 -196
-451 0 -120 18 -200 71 -305 42 -86 147 -200 226 -245 304 -177 677 -61 830
257 24 51 49 117 55 146 16 75 13 216 -5 292 -51 217 -234 405 -445 455 -84
20 -209 18 -284 -4z"/>
<path d="M2471 3429 c-75 -30 -142 -99 -171 -175 -18 -48 -21 -73 -18 -135 4
-69 10 -87 63 -190 589 -1153 1819 -1778 3055 -1553 668 121 1272 484 1715
1028 110 137 255 359 332 513 l68 134 0 87 c-1 71 -5 96 -25 137 -89 182 -313
230 -459 99 -35 -31 -64 -74 -105 -153 -117 -223 -243 -398 -415 -574 -199
-204 -388 -342 -634 -463 -227 -111 -454 -179 -717 -215 -112 -15 -401 -15
-520 0 -397 52 -760 198 -1084 439 -118 88 -310 273 -403 387 -90 112 -211
296 -273 416 -29 56 -68 119 -88 141 -80 88 -212 120 -321 77z"/>
</g>
</svg>
