<svg version="1.0" xmlns="http://www.w3.org/2000/svg"
 width="24" height="24" viewBox="0 0 512.000000 512.000000"
 preserveAspectRatio="xMidYMid meet">

<g transform="translate(0.000000,512.000000) scale(0.100000,-0.100000)"
fill="#000000" stroke="none">
<path d="M2392 5110 c-149 -21 -363 -91 -389 -127 -23 -30 -16 -79 14 -103 31
-25 31 -25 169 24 285 101 595 83 869 -50 50 -24 101 -52 114 -63 25 -19 25
-20 12 -87 -16 -91 -40 -143 -91 -198 -76 -83 -192 -121 -365 -120 -135 1
-226 15 -420 64 -82 22 -190 47 -240 56 -112 21 -282 22 -347 1 -27 -8 -48
-12 -48 -8 0 15 60 98 114 158 41 45 56 69 56 90 0 37 -37 73 -73 73 -54 0
-181 -145 -243 -275 -60 -126 -64 -157 -64 -490 l0 -300 -53 -1 c-68 -1 -129
-32 -164 -86 l-28 -42 0 -235 c0 -263 1 -268 74 -344 44 -47 80 -67 146 -82
l49 -11 13 -63 c50 -248 199 -529 380 -720 66 -69 73 -80 73 -117 0 -37 -6
-46 -52 -91 -99 -93 -251 -182 -403 -236 -38 -14 -216 -59 -395 -101 -486
-115 -594 -150 -646 -208 -122 -133 -304 -900 -304 -1280 0 -92 1 -97 26 -117
46 -36 93 -22 114 33 5 15 10 60 10 99 0 278 146 959 243 1132 20 36 31 43
101 67 43 15 162 48 264 73 371 89 557 134 579 141 21 6 21 5 -8 -103 -41
-151 -79 -342 -79 -396 0 -37 5 -49 26 -66 34 -27 57 -26 88 1 22 19 29 41 45
134 20 114 76 342 111 449 20 59 21 61 94 99 41 21 97 56 125 77 28 22 53 39
55 39 2 0 6 -93 9 -207 11 -410 92 -755 259 -1103 75 -157 132 -255 213 -365
123 -167 147 -167 270 0 297 404 475 975 475 1523 0 83 2 152 5 152 2 0 28
-17 56 -39 28 -21 84 -56 125 -77 l74 -39 30 -95 c58 -189 105 -400 116 -521
18 -201 -121 -443 -438 -763 -87 -88 -160 -167 -163 -177 -9 -27 22 -78 50
-85 14 -3 39 -1 55 6 17 7 106 91 200 186 l169 174 22 -42 c12 -23 47 -67 78
-98 83 -82 279 -230 305 -230 26 0 40 9 187 127 136 108 173 148 206 220 87
190 -19 387 -217 401 -57 4 -76 1 -121 -20 l-54 -25 -50 24 c-27 12 -66 23
-86 23 l-37 0 19 61 c44 140 32 287 -45 592 -41 161 -42 168 -22 162 88 -25
401 -98 441 -102 42 -4 53 -2 69 16 25 27 25 77 0 102 -14 13 -83 34 -229 69
-250 60 -313 80 -425 134 -108 53 -188 106 -262 174 -52 49 -58 58 -58 94 0
36 8 48 73 119 182 196 301 414 367 674 22 86 32 111 47 113 96 17 184 77 226
157 21 38 22 53 22 276 l0 235 -28 42 c-35 54 -96 85 -164 86 l-53 1 0 300 c0
328 -4 363 -60 482 -120 258 -410 471 -749 549 -119 28 -349 40 -459 24z
m1002 -523 c95 -130 116 -201 116 -405 l0 -154 -44 52 c-24 28 -62 67 -85 86
l-41 36 0 219 c0 120 3 219 8 219 4 0 24 -24 46 -53z m-204 -294 c0 -133 8
-152 114 -263 107 -111 164 -211 191 -335 26 -114 17 -620 -13 -752 -60 -264
-171 -479 -337 -652 -125 -130 -241 -204 -395 -252 -106 -33 -274 -33 -380 0
-354 110 -632 454 -732 906 -30 131 -38 638 -13 750 27 124 84 224 191 335
105 110 114 130 114 259 l0 84 61 -7 c34 -4 149 -29 258 -56 265 -65 324 -74
481 -73 104 0 153 6 213 22 83 22 185 71 213 102 9 10 21 19 26 19 4 0 8 -39
8 -87z m-1453 -128 c-25 -22 -63 -62 -86 -88 l-41 -48 0 120 0 119 41 36 c23
19 60 41 83 49 l41 14 3 -81 3 -81 -44 -40z m-297 -575 c19 -19 20 -33 20
-250 l0 -231 -28 15 c-65 34 -67 39 -70 253 -3 173 -1 197 14 214 22 24 39 24
64 -1z m2304 1 c15 -17 17 -41 14 -214 -3 -214 -5 -219 -70 -253 l-28 -15 0
231 c0 217 1 231 20 250 25 25 42 25 64 1z m-1397 -1703 c62 -17 107 -21 213
-21 157 0 238 18 375 82 l85 40 0 -242 c0 -261 -14 -422 -54 -617 -25 -125
-85 -330 -96 -330 -4 0 -17 39 -30 88 -13 48 -36 124 -51 170 l-28 82 30 64
c59 126 58 244 -4 361 -54 100 -170 205 -227 205 -57 0 -174 -105 -227 -205
-63 -121 -65 -231 -4 -362 l30 -63 -28 -82 c-15 -46 -38 -122 -51 -170 -13
-49 -26 -88 -30 -88 -11 0 -71 205 -96 330 -40 195 -54 356 -54 617 l0 242 85
-40 c46 -22 119 -49 162 -61z m262 -334 c55 -58 74 -105 73 -176 0 -48 -7 -70
-42 -134 l-42 -77 46 -146 c41 -131 86 -299 116 -435 10 -47 9 -51 -31 -125
-55 -100 -159 -261 -169 -261 -10 0 -118 167 -170 263 -39 72 -40 77 -30 123
30 136 75 304 116 435 l46 146 -42 77 c-35 64 -42 86 -42 134 -1 31 6 74 15
94 15 36 92 128 107 128 4 0 26 -21 49 -46z m1180 -998 c49 -48 83 -48 132 0
94 91 224 27 204 -102 -8 -58 -50 -108 -169 -203 l-99 -80 -59 46 c-154 118
-204 174 -213 238 -19 127 111 191 204 101z"/>
<path d="M1975 3740 c-148 -33 -207 -90 -160 -157 23 -32 58 -36 117 -11 76
32 240 32 316 0 67 -28 77 -28 107 3 82 81 -33 163 -240 170 -55 2 -118 0
-140 -5z"/>
<path d="M2915 3740 c-156 -34 -216 -100 -150 -165 30 -31 40 -31 107 -3 76
32 240 32 316 0 59 -25 94 -21 117 11 58 83 -52 155 -250 162 -55 2 -118 0
-140 -5z"/>
<path d="M1923 3370 c-49 -45 -33 -98 44 -148 92 -59 198 -65 300 -16 95 46
127 111 78 159 -31 32 -62 32 -105 0 -74 -55 -133 -56 -210 -5 -53 35 -78 37
-107 10z"/>
<path d="M2775 3365 c-49 -48 -17 -113 78 -159 102 -49 208 -43 300 16 77 50
93 103 44 148 -29 27 -54 25 -107 -10 -77 -51 -136 -50 -210 5 -43 32 -74 32
-105 0z"/>
<path d="M2170 2640 c-12 -12 -20 -33 -20 -53 0 -28 10 -43 58 -89 156 -149
371 -184 569 -93 99 46 193 134 193 182 0 41 -30 73 -69 73 -21 0 -46 -14 -87
-50 -98 -86 -198 -118 -310 -100 -75 12 -130 40 -198 100 -64 56 -102 64 -136
30z"/>
<path d="M4380 1500 c-24 -24 -26 -76 -4 -101 9 -10 52 -30 96 -45 92 -30 100
-40 149 -174 95 -263 199 -798 199 -1027 0 -39 5 -84 10 -99 21 -55 68 -69
114 -33 25 20 26 25 26 117 0 379 -182 1147 -304 1280 -26 30 -94 65 -165 86
-72 21 -97 20 -121 -4z"/>
<path d="M1566 639 c-18 -14 -26 -30 -26 -50 0 -59 146 -243 357 -451 126
-125 160 -147 202 -133 26 8 54 59 46 84 -3 10 -76 89 -163 177 -87 87 -193
206 -236 264 -43 58 -85 111 -94 118 -23 18 -56 15 -86 -9z"/>
</g>
</svg>
