<svg version="1.0" xmlns="http://www.w3.org/2000/svg"
 width="24" height="24" viewBox="0 0 200.000000 200.000000"
 preserveAspectRatio="xMidYMid meet">

<g transform="translate(0.000000,200.000000) scale(0.100000,-0.100000)"
fill="#000000" stroke="none">
<path d="M827 1990 c-96 -24 -192 -94 -245 -178 -39 -61 -59 -132 -72 -262
-18 -180 -63 -284 -131 -305 -26 -9 -24 -23 10 -77 47 -74 118 -119 212 -133
60 -9 132 10 127 33 -3 14 -13 16 -62 13 -76 -4 -136 14 -186 56 -64 55 -65
64 -21 111 51 54 77 125 91 253 29 272 71 351 220 423 60 29 73 31 170 31 93
0 111 -3 163 -27 72 -34 112 -67 155 -126 41 -58 58 -116 72 -245 19 -182 49
-269 111 -321 l32 -27 -30 -37 c-48 -59 -113 -87 -202 -87 -54 0 -76 -4 -79
-14 -7 -22 19 -31 89 -31 108 0 190 40 241 118 43 64 43 76 3 95 -64 31 -97
111 -115 280 -14 139 -27 192 -63 260 -38 72 -102 130 -186 170 -56 27 -77 31
-165 33 -56 2 -118 -1 -139 -6z"/>
<path d="M735 1651 c-48 -22 -69 -44 -90 -94 -43 -104 15 -340 116 -468 36
-45 36 -59 3 -99 -36 -42 -85 -66 -202 -96 -151 -41 -197 -71 -221 -147 -16
-51 -111 -545 -111 -578 0 -63 51 -135 113 -158 46 -18 767 -14 860 3 232 45
455 193 530 354 57 122 39 271 -45 367 -69 78 -154 108 -246 86 -56 -14 -114
-58 -139 -104 -14 -25 -17 -60 -18 -164 0 -119 2 -133 17 -133 26 0 39 63 32
165 -5 79 -3 94 15 122 62 98 228 95 311 -5 64 -77 80 -214 36 -307 -68 -144
-249 -274 -453 -325 -75 -19 -106 -20 -491 -18 l-410 3 -26 24 c-52 49 -52 63
9 362 31 151 61 286 67 302 18 47 60 72 169 101 170 45 232 80 260 148 9 23
16 28 33 23 12 -3 45 -8 74 -12 43 -5 50 -8 40 -20 -9 -11 -8 -17 3 -28 13
-13 17 -13 37 0 12 9 25 30 30 48 l8 31 25 -44 c13 -24 42 -57 65 -73 50 -35
233 -91 250 -76 24 20 2 36 -79 59 -129 35 -166 59 -200 126 -15 30 -15 33 3
49 11 10 31 37 45 61 31 53 92 233 99 294 l6 45 -119 78 c-66 43 -144 87 -175
97 -72 26 -177 26 -231 1z m207 -41 c58 -18 90 -37 253 -153 19 -14 19 -15 -3
-98 -12 -46 -40 -121 -63 -167 -53 -109 -92 -137 -190 -137 -60 0 -71 3 -106
31 -73 59 -145 219 -160 354 -16 153 96 224 269 170z"/>
<path d="M610 742 c-70 -39 -94 -135 -52 -204 12 -18 57 -66 102 -107 45 -41
87 -87 92 -103 12 -34 24 -36 33 -5 4 12 51 65 104 117 81 78 100 103 109 138
17 73 -11 137 -74 167 -45 21 -97 15 -130 -16 l-24 -22 -24 22 c-34 32 -92 37
-136 13z m101 -42 c10 -6 26 -27 34 -47 l16 -37 20 34 c28 47 47 60 85 60 40
0 83 -35 85 -70 5 -63 -1 -74 -92 -161 l-92 -88 -79 72 c-88 79 -108 109 -108
162 0 66 71 107 131 75z"/>
<path d="M1089 451 c-164 -83 -230 -168 -215 -277 7 -54 33 -107 49 -101 13 4
13 28 1 114 -9 74 23 127 111 182 103 65 108 66 158 28 58 -44 130 -74 211
-87 51 -8 72 -8 82 1 22 18 -2 39 -46 39 -79 0 -214 60 -259 114 -18 22 -27
20 -92 -13z"/>
</g>
</svg>
